<svg width="80" height="73" viewBox="0 0 80 73" fill="none" xmlns="http://www.w3.org/2000/svg">
<path d="M13.5451 54.9099V44.7382C21.0353 44.7382 27.1073 50.8102 27.1073 58.3005C27.1073 65.7907 21.0353 71.8627 13.5451 71.8627V61.352" stroke="black"/>
<path d="M13.5451 62.03C15.6049 62.03 17.2747 60.3602 17.2747 58.3004C17.2747 56.2406 15.6049 54.5708 13.5451 54.5708" stroke="black"/>
<circle cx="68.8112" cy="52.8755" r="3.22961" stroke="black"/>
<circle cx="72.5408" cy="9.47638" r="6.95923" stroke="black"/>
<circle cx="48.8069" cy="32.5322" r="11.706" stroke="black"/>
<line x1="67.4627" y1="15.2614" x2="58.3082" y2="24.0769" stroke="black"/>
<line x1="59.6902" y1="42.3705" x2="65.4541" y2="48.8125" stroke="black"/>
<path d="M26.1001 49.4042L37.8616 40.3305" stroke="black"/>
<line x1="36.3132" y1="20.0138" x2="39.0256" y2="23.4044" stroke="black"/>
<path d="M14.9013 19.9871H7C3.6863 19.9871 1 17.3008 1 13.9871V7C1 3.68629 3.68629 1 7 1H29.4142C32.7279 1 35.4142 3.68629 35.4142 7V13.9871C35.4142 17.3008 32.7279 19.9871 29.4142 19.9871H18.97" stroke="black"/>
<path d="M5.57727 6.76392H10.6631" stroke="black"/>
<path d="M24.7339 12.8669H29.8197" stroke="black"/>
<path d="M16.5966 6.76392H30.8369" stroke="black"/>
<path d="M5.40771 12.8669H19.6481" stroke="black"/>
<path d="M34.2248 58.4388C35.1723 58.4388 35.9209 58.7209 36.4707 59.2851C37.0204 59.8493 37.2953 60.6558 37.2953 61.7046V66.0987H36.4924V61.6286C36.4924 60.8113 36.2935 60.1964 35.8956 59.7842C35.4978 59.3646 34.9408 59.1549 34.2248 59.1549C33.5014 59.1549 32.9373 59.3646 32.5322 59.7842C32.1344 60.1964 31.9355 60.8113 31.9355 61.6286V66.0987H30.2212V65.4043H31.1326V61.7046C31.1326 60.6558 31.4111 59.8493 31.968 59.2851C32.525 58.7209 33.2772 58.4388 34.2248 58.4388Z" fill="black"/>
<path d="M45.0003 65.2307C44.6893 65.5273 44.2734 65.7588 43.7526 65.9251C43.239 66.0843 42.6676 66.1638 42.0383 66.1638C41.3728 66.1638 40.805 66.0734 40.3349 65.8926C39.872 65.7118 39.5212 65.4622 39.2825 65.1439C39.051 64.8257 38.9353 64.4604 38.9353 64.0481C38.9353 63.5924 39.0691 63.2055 39.3367 62.8872C39.6116 62.5689 39.9696 62.3483 40.4108 62.2254C40.0492 62.0879 39.7671 61.8709 39.5646 61.5744C39.362 61.2706 39.2608 60.9161 39.2608 60.5111C39.2608 60.1277 39.3693 59.7805 39.5863 59.4695C39.8105 59.1513 40.1432 58.9017 40.5844 58.7209C41.0329 58.5328 41.5718 58.4388 42.201 58.4388C42.664 58.4388 43.1124 58.493 43.5464 58.6015C43.9876 58.7028 44.3638 58.8511 44.6748 59.0464L44.4253 59.6865C43.7598 59.3104 43.0292 59.1223 42.2336 59.1223C41.532 59.1223 40.9931 59.2561 40.617 59.5238C40.2481 59.7914 40.0636 60.1386 40.0636 60.5653C40.0636 60.9921 40.2119 61.3212 40.5085 61.5527C40.8123 61.7841 41.239 61.8999 41.7888 61.8999H43.6766V62.5942H41.7562C41.1342 62.5942 40.6423 62.7136 40.2806 62.9523C39.919 63.1838 39.7381 63.5309 39.7381 63.9939C39.7381 64.4496 39.9334 64.8112 40.324 65.0789C40.7219 65.3465 41.3041 65.4803 42.0709 65.4803C42.6061 65.4803 43.1052 65.4043 43.5681 65.2524C44.031 65.1006 44.4072 64.8908 44.6965 64.6232L45.0003 65.2307Z" fill="black"/>
<path d="M49.0124 62.6159H47.2765V66.0987H46.4953V58.5039H47.2765V61.9107H49.0124L51.5838 58.5039H52.4518L49.6309 62.1928L52.6146 66.0987H51.6923L49.0124 62.6159Z" fill="black"/>
<path d="M58.9012 59.9035C58.1562 59.4695 57.3316 59.22 56.4275 59.1549V66.0987H55.6246V59.1549C54.7349 59.2127 53.9067 59.4623 53.14 59.9035L52.8471 59.2742C53.7874 58.7173 54.8434 58.4388 56.0152 58.4388C57.2087 58.4388 58.2683 58.7173 59.1942 59.2742L58.9012 59.9035Z" fill="black"/>
<path d="M63.3558 58.4496C64.3178 58.4496 65.0736 58.7028 65.6234 59.2091C66.1731 59.7154 66.4479 60.4134 66.4479 61.3031C66.4479 62.1639 66.1912 62.8438 65.6776 63.3429C65.1641 63.8347 64.4588 64.0807 63.5619 64.0807C63.1207 64.0807 62.7012 64.0192 62.3033 63.8962C61.9055 63.766 61.5077 63.5707 61.1098 63.3103V66.0987H60.3178V61.4225C60.3178 60.4822 60.5818 59.7516 61.1098 59.2308C61.6451 58.71 62.3937 58.4496 63.3558 58.4496ZM63.4426 63.4188C64.1297 63.4188 64.6686 63.2344 65.0592 62.8655C65.4498 62.4894 65.6451 61.9722 65.6451 61.314C65.6451 60.6485 65.4425 60.1241 65.0375 59.7408C64.6324 59.3574 64.0791 59.1657 63.3775 59.1657C62.6614 59.1657 62.1044 59.3646 61.7066 59.7625C61.3088 60.153 61.1098 60.7064 61.1098 61.4225V62.54C61.4281 62.8293 61.7825 63.0499 62.1731 63.2018C62.571 63.3465 62.9941 63.4188 63.4426 63.4188Z" fill="black"/>
</svg>
